<svg id="icons" xmlns="http://www.w3.org/2000/svg" viewBox="0 0 64 64"><defs><style>.cls-1{fill:#363f40;}</style></defs><title>control</title><path class="cls-1" d="M179,425h-2V414h-5a7,7,0,0,1-7-7v-8h-4a1,1,0,0,1-1-1v-2a1,1,0,0,1,.07-.36L165,382.81A22,22,0,0,1,187,361v2a20,20,0,0,0-20,20,1,1,0,0,1-.07.36L162,396.19V397h4a1,1,0,0,1,1,1v9a5,5,0,0,0,5,5h6a1,1,0,0,1,1,1Z" transform="translate(-160 -361)"/><rect class="cls-1" x="18" y="51" width="3" height="2"/><path class="cls-1" d="M201,425h-2V413c0-5,1.88-9.07,3.87-13.35S207,390.79,207,385h2c0,6.24-2.19,10.94-4.32,15.5-1.89,4.07-3.68,7.91-3.68,12.5Z" transform="translate(-160 -361)"/><rect class="cls-1" x="43" y="51" width="3" height="2"/><path class="cls-1" d="M207,425h-2V413a1,1,0,0,1,1-1h6a5,5,0,0,0,5-5v-9a1,1,0,0,1,1-1h4v-.81l-4.93-12.83A1,1,0,0,1,217,383a20,20,0,0,0-40,0h-2a22,22,0,0,1,44-.19l4.93,12.83a1,1,0,0,1,.07.36v2a1,1,0,0,1-1,1h-4v8a7,7,0,0,1-7,7h-5Z" transform="translate(-160 -361)"/><path class="cls-1" d="M195,396.62a1,1,0,0,1-1-.87,2,2,0,0,0-3.94,0,1,1,0,0,1-.43.7,1,1,0,0,1-.81.14,13,13,0,0,1-2.75-1,1,1,0,0,1-.37-1.44,2,2,0,0,0-3-2.62,1,1,0,0,1-1.48-.2,13,13,0,0,1-1.82-4.08,1,1,0,0,1,.84-1.24,2,2,0,0,0,0-3.94,1,1,0,0,1-.84-1.24,12.91,12.91,0,0,1,1.41-3.41,1,1,0,0,1,1.63-.12,2,2,0,1,0,2.79-2.8,1,1,0,0,1,.12-1.63,12.91,12.91,0,0,1,3.41-1.41,1,1,0,0,1,1.24.84,2,2,0,0,0,3.94,0,1,1,0,0,1,1.24-.84,12.91,12.91,0,0,1,3.41,1.41,1,1,0,0,1,.12,1.63,2,2,0,1,0,2.79,2.8,1,1,0,0,1,1.63.12,12.91,12.91,0,0,1,1.41,3.41,1,1,0,0,1-.84,1.24,2,2,0,0,0,0,3.94,1,1,0,0,1,.84,1.24,13,13,0,0,1-1.82,4.08,1,1,0,0,1-1.48.2A2,2,0,0,0,200,391a2,2,0,0,0-1.67,3.1,1,1,0,0,1-.37,1.44,13,13,0,0,1-2.75,1A1,1,0,0,1,195,396.62Zm-7.14-2.45.54.2a4,4,0,0,1,7.28,0l.54-.2A4,4,0,0,1,200,389a3.93,3.93,0,0,1,1.61.35,10.91,10.91,0,0,0,.76-1.71,4,4,0,0,1,0-7.28q-.16-.46-.36-.91a4,4,0,0,1-2,.55,4,4,0,0,1-4-4,3.94,3.94,0,0,1,.55-2q-.45-.2-.91-.37a4,4,0,0,1-7.28,0q-.46.16-.91.37a3.94,3.94,0,0,1,.55,2,4,4,0,0,1-4,4,4,4,0,0,1-2-.55q-.2.45-.36.91a4,4,0,0,1,0,7.28,10.91,10.91,0,0,0,.76,1.71A3.93,3.93,0,0,1,184,389a4,4,0,0,1,3.83,5.17Z" transform="translate(-160 -361)"/><path class="cls-1" d="M192,389a5,5,0,1,1,5-5A5,5,0,0,1,192,389Zm0-8a3,3,0,1,0,3,3A3,3,0,0,0,192,381Z" transform="translate(-160 -361)"/></svg>