<svg id="央铋_1" data-name="央铋 1" xmlns="http://www.w3.org/2000/svg" viewBox="0 0 82.34 82.36"><defs><style>.cls-1{fill:#fff;fill-rule:evenodd;}</style></defs><title>icon-supply-chain</title><path class="cls-1" d="M-66.07,300A8.7,8.7,0,0,0-68,302.82a8.84,8.84,0,0,0-.66,3.38h0a8.87,8.87,0,0,0,.67,3.37,8.62,8.62,0,0,0,1.89,2.83l.05.05a8.59,8.59,0,0,0,2.78,1.84,8.91,8.91,0,0,0,3.38.67,8.91,8.91,0,0,0,3.39-.66h0a8.53,8.53,0,0,0,2.82-1.87l8.32-8.32a22.14,22.14,0,0,1-3.26-1.62,22.66,22.66,0,0,1-4.25-3.33,22.36,22.36,0,0,1-4.86-7.29l-.07-.18-8.29,8.3Zm29.41-8h-.28a8.92,8.92,0,0,1-3.38-.66,8.68,8.68,0,0,1-2.83-1.89h0A8.61,8.61,0,0,1-45,286.63a8.92,8.92,0,0,1-.66-3.38V283h.29a8.92,8.92,0,0,1,3.37.66,8.58,8.58,0,0,1,2.83,1.89h0a8.61,8.61,0,0,1,1.88,2.83,8.84,8.84,0,0,1,.67,3.38V292ZM-37,270.88a21.55,21.55,0,0,1,3.26,1.62,22.32,22.32,0,0,1,4.25,3.33,22.3,22.3,0,0,1,4.86,7.28l.08.18,8.28-8.3h0a8.72,8.72,0,0,0,1.89-2.83,8.91,8.91,0,0,0,.66-3.38h0a8.88,8.88,0,0,0-.66-3.37,8.62,8.62,0,0,0-1.89-2.83l-.05-.05a8.54,8.54,0,0,0-2.78-1.84,8.89,8.89,0,0,0-3.37-.67,9,9,0,0,0-3.39.66h0a8.54,8.54,0,0,0-2.81,1.87L-37,270.88Zm14.08,20.86a23.06,23.06,0,0,0-.26-3.43,22.26,22.26,0,0,0-.59-2.72l9-9.06h0A10.75,10.75,0,0,0-12.37,273a11.06,11.06,0,0,0,.83-4.21h0a11,11,0,0,0-.83-4.2A10.87,10.87,0,0,0-14.72,261l-.07-.06a10.9,10.9,0,0,0-3.48-2.3,11.17,11.17,0,0,0-4.2-.83,11.28,11.28,0,0,0-4.21.82h0A10.65,10.65,0,0,0-30.22,261L-44.71,275.5A10.76,10.76,0,0,0-47.06,279l0,.09a11.16,11.16,0,0,0-.79,4.12,11.06,11.06,0,0,0,.83,4.21A10.84,10.84,0,0,0-44.69,291h0a11,11,0,0,0,3.54,2.36,11.1,11.1,0,0,0,4.15.82,8.81,8.81,0,0,1-.55,1.44,8.72,8.72,0,0,1-1.66,2.32l-.06.06-4.4,4.4a20.12,20.12,0,0,1-3.82-1.79,20.43,20.43,0,0,1-3.83-3A20.17,20.17,0,0,1-55.69,291c-.22-.53-.41-1.07-.59-1.61v-.06a20.79,20.79,0,0,1-.7-3,20.89,20.89,0,0,1-.24-3.1,20.36,20.36,0,0,1,1.54-7.78,20.32,20.32,0,0,1,4.4-6.57h0l14.46-14.46.06-.06A20.22,20.22,0,0,1-30.25,250a20.34,20.34,0,0,1,7.78-1.54h0A20.45,20.45,0,0,1-14.68,250a20.17,20.17,0,0,1,6.57,4.4A20.23,20.23,0,0,1-3.72,261a20.5,20.5,0,0,1,1.54,7.79h0a20.41,20.41,0,0,1-1.54,7.8,20.26,20.26,0,0,1-4.39,6.57l-.06.06-14.42,14.4q-.74.73-1.53,1.38c.19-.56.36-1.12.5-1.69s.32-1.42.43-2.14h0l0-.08v-.17h0v-.08a22.41,22.41,0,0,0,.21-3.07Zm-2.91,11.06a22.4,22.4,0,0,1-3.67,4.83h0L-44,322.09l-.06.06A22.46,22.46,0,0,1-51.26,327a22.46,22.46,0,0,1-8.61,1.71h0a22.64,22.64,0,0,1-8.62-1.7,22.33,22.33,0,0,1-7.28-4.86,22.31,22.31,0,0,1-4.86-7.28,22.6,22.6,0,0,1-1.71-8.62h0a22.65,22.65,0,0,1,1.7-8.63,22.4,22.4,0,0,1,4.86-7.28l.06-.06,14.43-14.4a22.45,22.45,0,0,1,2.38-2.07,22.39,22.39,0,0,1,2.39-1.57,22.56,22.56,0,0,1,3.67-4.83h0l14.46-14.46.07-.06A22.47,22.47,0,0,1-31.08,248a22.54,22.54,0,0,1,8.6-1.71h0A22.58,22.58,0,0,1-13.85,248a22.32,22.32,0,0,1,7.28,4.86,22.32,22.32,0,0,1,4.86,7.28A22.63,22.63,0,0,1,0,268.79H0a22.63,22.63,0,0,1-1.71,8.63,22.32,22.32,0,0,1-4.86,7.28l-.06.06-14.42,14.4a22.72,22.72,0,0,1-2.38,2.07,22.54,22.54,0,0,1-2.39,1.57Zm-33.58-19.55a22.42,22.42,0,0,0,.26,3.43,22.39,22.39,0,0,0,.58,2.71l-9,9.06h0A10.92,10.92,0,0,0-70,302a11.09,11.09,0,0,0-.83,4.21h0a11.1,11.1,0,0,0,.83,4.2A10.89,10.89,0,0,0-67.61,314l.07.06a10.81,10.81,0,0,0,3.48,2.3,11.06,11.06,0,0,0,4.2.82,11.07,11.07,0,0,0,4.21-.82h0A10.71,10.71,0,0,0-52.11,314l14.48-14.48A10.62,10.62,0,0,0-35.28,296l0-.09a11.07,11.07,0,0,0,.79-4.12,11.08,11.08,0,0,0-.83-4.2A10.81,10.81,0,0,0-37.65,284h0a10.84,10.84,0,0,0-3.54-2.36,11.16,11.16,0,0,0-4.15-.83,8.66,8.66,0,0,1,.55-1.44A8.59,8.59,0,0,1-43.13,277l.05-.06,4.4-4.41a20.55,20.55,0,0,1,3.82,1.8,20.23,20.23,0,0,1,3.82,3,20.07,20.07,0,0,1,4.39,6.57q.33.79.59,1.61l0,.06a20.78,20.78,0,0,1,.7,3,20.89,20.89,0,0,1,.24,3.1,20.37,20.37,0,0,1-1.54,7.78,20.38,20.38,0,0,1-4.4,6.57h0l-14.46,14.46-.06.06A20.25,20.25,0,0,1-52.08,325a20.4,20.4,0,0,1-7.78,1.54h0A20.43,20.43,0,0,1-67.65,325a20.05,20.05,0,0,1-6.57-4.39A20.16,20.16,0,0,1-78.61,314a20.48,20.48,0,0,1-1.54-7.79h0a20.5,20.5,0,0,1,1.54-7.8,20.21,20.21,0,0,1,4.39-6.56l.06-.06,14.42-14.4A20,20,0,0,1-58.22,276c-.19.56-.35,1.12-.5,1.7a21.47,21.47,0,0,0-.43,2.14h0l0,.09v.18h0v.08A22.14,22.14,0,0,0-59.41,283.25Z" transform="translate(82.34 -246.31)"/></svg>