<svg id="Layer_1" data-name="Layer 1" xmlns="http://www.w3.org/2000/svg" viewBox="0 0 143.24 143.23"><defs><style>.cls-1{fill:#fff;}</style></defs><title>icon-phone</title><path class="cls-1" d="M290.42,309.81c-10.12,8.76-9.5,33.58,2.11,58.34S322.62,409,335.67,406.5l-13.36-28.56a14.1,14.1,0,0,0-3.44,4.5c-6.1-2.77-12.5-9.65-16.85-18.91s-5.56-18.7-3.84-25.27a13.93,13.93,0,0,0,5.6.09Z" transform="translate(-242.95 -285.22)"/><path class="cls-1" d="M327.72,375.31l13.36,28.54a18,18,0,0,0,4.75-7l-12.51-21.42A13.73,13.73,0,0,0,327.72,375.31Z" transform="translate(-242.95 -285.22)"/><path class="cls-1" d="M309.2,335.72l-13.37-28.56a17.84,17.84,0,0,1,8.35.64l8.46,23.4A14.37,14.37,0,0,1,309.2,335.72Z" transform="translate(-242.95 -285.22)"/><path class="cls-1" d="M314.57,428.45a71.62,71.62,0,1,1,71.62-71.62A71.7,71.7,0,0,1,314.57,428.45Zm0-133.94a62.33,62.33,0,1,0,62.33,62.33A62.4,62.4,0,0,0,314.57,294.51Z" transform="translate(-242.95 -285.22)"/></svg>