<svg id="Layer_1" data-name="Layer 1" xmlns="http://www.w3.org/2000/svg" viewBox="0 0 240.77 503.61"><defs><style>.cls-1,.cls-2{fill:#fff;}.cls-2{stroke:#fff;stroke-miterlimit:10;}</style></defs><title>icon-btn-next</title><path class="cls-1" d="M1773.94,451.3c-66.38,0-120.38,54.57-120.38,121.64v142c0,67.07,54,121.64,120.38,121.64S1894.32,782,1894.32,714.89v-142C1894.32,505.87,1840.32,451.3,1773.94,451.3ZM1870.24,719v-4.1c0,53.66-43.21,97.31-96.31,97.31s-96.31-43.66-96.31-97.31v-142c0-53.67,43.2-97.31,96.31-97.31s96.31,43.64,96.31,97.31V719Z" transform="translate(-1653.55 -451.3)"/><path class="cls-1" d="M1773.94,636.25a15,15,0,0,1-15-15V579.07a15,15,0,1,1,30.1,0v42.13A15,15,0,0,1,1773.94,636.25Z" transform="translate(-1653.55 -451.3)"/><path class="cls-2" d="M1821.89,899.46a7.08,7.08,0,0,0-10,.07l-38,38-38-38a7,7,0,1,0-9.76,10L1768,951.4a12.83,12.83,0,0,0,2.44,2.1,7.07,7.07,0,0,0,8.54-1.22l42.9-42.91a7.07,7.07,0,0,0,0-9.9Z" transform="translate(-1653.55 -451.3)"/></svg>