<svg id="Layer_1" data-name="Layer 1" xmlns="http://www.w3.org/2000/svg" viewBox="0 0 143.24 143.25"><defs><style>.cls-1{fill:#fff;}</style></defs><title>icon-mail</title><polygon class="cls-1" points="28.91 46.02 28.91 91.72 57.58 68.32 28.91 46.02"/><polygon class="cls-1" points="114.31 91.73 114.31 46.03 85.65 68.33 114.31 91.73"/><polygon class="cls-1" points="80.85 72.06 71.61 79.24 62.37 72.06 30.44 98.11 112.78 98.11 80.85 72.06"/><polygon class="cls-1" points="105.79 45.13 37.44 45.13 71.61 71.72 105.79 45.13"/><path class="cls-1" d="M859.05,428.45a71.62,71.62,0,1,1,71.62-71.63A71.71,71.71,0,0,1,859.05,428.45Zm0-134a62.33,62.33,0,1,0,62.33,62.33A62.4,62.4,0,0,0,859.05,294.5Z" transform="translate(-787.43 -285.21)"/></svg>