<svg id="Layer_1" data-name="Layer 1" xmlns="http://www.w3.org/2000/svg" viewBox="0 0 143.24 143.25"><defs><style>.cls-1{fill:#fff;}</style></defs><title>icon-address</title><path class="cls-1" d="M133.07,309.32a35.81,35.81,0,0,0-36.47,36c0,28.16,26.87,52.24,36.46,59a.36.36,0,0,0,0-.05.45.45,0,0,0,0,.05c9.59-6.79,36.46-30.88,36.46-59A35.81,35.81,0,0,0,133.07,309.32Zm0,54.28a18.28,18.28,0,1,1,18.28-18.29A18.28,18.28,0,0,1,133.07,363.6Z" transform="translate(-61.46 -285.21)"/><path class="cls-1" d="M133.07,428.45a71.62,71.62,0,1,1,71.62-71.63A71.7,71.7,0,0,1,133.07,428.45Zm0-134a62.33,62.33,0,1,0,62.33,62.33A62.4,62.4,0,0,0,133.07,294.5Z" transform="translate(-61.46 -285.21)"/></svg>