<svg id="央铋_1" data-name="央铋 1" xmlns="http://www.w3.org/2000/svg" viewBox="0 0 127.66 118.74"><defs><style>.cls-1{fill:#fff;fill-rule:evenodd;}</style></defs><title>icon-brand</title><path class="cls-1" d="M647,211.52a1.42,1.42,0,0,1,2.83,0V221a12.08,12.08,0,0,1,7.14,3.47h0a12.11,12.11,0,0,1,1.42,15.42l7.65,7.72a1.41,1.41,0,1,1-2,2l-7.51-7.58a12.11,12.11,0,0,1-16,.21l-7.37,7.37a1.42,1.42,0,0,1-2-2l7.45-7.45A12.11,12.11,0,0,1,647,221v-9.53Zm8.44-28a23.5,23.5,0,0,1,16.46,22.42,1.41,1.41,0,0,1-1.41,1.41H626.33a1.42,1.42,0,0,1-1.42-1.41,23.52,23.52,0,0,1,16.45-22.42,15,15,0,0,1-3.55-23.82A15,15,0,1,1,659,180.85h0a15.07,15.07,0,0,1-3.55,2.63Zm7.58,7.81a20.63,20.63,0,0,0-14.62-6.05h0a20.66,20.66,0,0,0-20.61,19.24H669a20.62,20.62,0,0,0-6-13.19Zm-6-29.63a12.15,12.15,0,1,0-8.59,20.75h0a12.11,12.11,0,0,0,8.59-3.56h0a12.17,12.17,0,0,0,0-17.19Zm38.79,88.51a15.2,15.2,0,0,0,3.56-2.63h0a15,15,0,1,0-17.64,2.64,23.52,23.52,0,0,0-16.44,22.41,1.42,1.42,0,0,0,1.41,1.42h44.16a1.42,1.42,0,0,0,1.42-1.42,23.52,23.52,0,0,0-16.46-22.42Zm7.58,7.81a20.58,20.58,0,0,1,6,13.19H668.13a20.67,20.67,0,0,1,20.61-19.25h0A20.58,20.58,0,0,1,703.36,258Zm-6-29.63a12.17,12.17,0,0,1,0,17.19h0a12.11,12.11,0,0,1-8.58,3.57h0a12.16,12.16,0,1,1,8.59-20.75Zm-82.22,21.82a15.12,15.12,0,0,0,3.54-2.63h0a15,15,0,1,0-21.19,0,15.07,15.07,0,0,0,3.55,2.64,23.52,23.52,0,0,0-16.44,22.41A1.41,1.41,0,0,0,586,274h44.16a1.41,1.41,0,0,0,1.41-1.42,23.53,23.53,0,0,0-16.45-22.42Zm7.57,7.81a20.59,20.59,0,0,1,6,13.19H587.45a20.68,20.68,0,0,1,20.61-19.25h0A20.59,20.59,0,0,1,622.68,258Zm-6-29.63a12.16,12.16,0,0,1,0,17.19h0a12.13,12.13,0,0,1-8.59,3.57h0a12.16,12.16,0,1,1,8.59-20.75Zm31.76-4.56h0a9.3,9.3,0,0,0-6.92,15.49h0l.11.12c.07.08.15.16.23.24h0a9.3,9.3,0,1,0,6.58-15.87Z" transform="translate(-584.58 -155.27)"/></svg>