<svg id="Layer_1" data-name="Layer 1" xmlns="http://www.w3.org/2000/svg" viewBox="0 0 213.78 256"><defs><style>.cls-1,.cls-2{fill:#fff;}.cls-1{fill-rule:evenodd;}</style></defs><title>icon-product</title><path class="cls-1" d="M2864,629.2c-1.34-1-3.22-.51-4.83,1.1s-2,3.49-1.1,4.83l13.17,18.7c1,1.42,3,1.33,4.74-.41l6.31-6.31c1.74-1.74,1.84-3.7.41-4.74L2864,629.2Zm20.85-58.71c-1.62.27-2.64,1.91-2.64,4.19s1,3.91,2.64,4.19l22.54,3.91c1.74.28,3.06-1.18,3.06-3.64v-8.93c0-2.46-1.32-3.91-3.06-3.64l-22.54,3.91Zm-77.1-77.1c-.27,1.62-1.91,2.64-4.19,2.64s-3.92-1-4.19-2.64l-3.91-22.54c-.28-1.74,1.18-3.06,3.64-3.06H2808c2.46,0,3.92,1.32,3.64,3.06l-3.91,22.54Zm-85.49,77.1c1.62.27,2.64,1.91,2.64,4.19s-1,3.91-2.64,4.19l-22.54,3.91c-1.74.28-3.06-1.18-3.06-3.64v-8.93c0-2.46,1.32-3.91,3.06-3.64l22.54,3.91Zm20.85,58.71c1.34-1,3.22-.51,4.83,1.1s2,3.49,1.1,4.83l-13.17,18.7c-1,1.42-3,1.33-4.74-.41l-6.31-6.31c-1.74-1.74-1.84-3.7-.41-4.74l18.7-13.17Zm5.92-115c1,1.34.51,3.22-1.1,4.83s-3.49,2-4.83,1.1L2724.38,507c-1.42-1-1.33-3,.41-4.74l6.31-6.31c1.74-1.74,3.7-1.84,4.74-.41l13.17,18.7Zm109,0c-1,1.34-.51,3.22,1.1,4.83s3.49,2,4.83,1.1l18.7-13.17c1.42-1,1.33-3-.41-4.74l-6.31-6.31c-1.74-1.74-3.7-1.84-4.74-.41L2858,514.24Z" transform="translate(-2696.64 -467.79)"/><path class="cls-2" d="M2859.51,574.68a56,56,0,1,0-112,0c0,17.17,7.92,27.79,15.31,37.7,6.5,8.71,12.64,17,14.26,28.42h11.29c-.77-22.06-5.78-37-12.26-56.29-1.81-5.39-3.73-11.11-5.43-16.51a4,4,0,0,1,6-4.54l15.23,8.46,8.88-8.08a4,4,0,0,1,5.38,0l8.88,8.08,15.49-8.61a4,4,0,0,1,5.74,4.68h0c-1.71,5.41-3.63,11.13-5.44,16.52-6.49,19.3-11.5,34.21-12.27,56.28h11.32c1.62-11.47,7.76-19.71,14.26-28.42,7.39-9.91,15.31-20.53,15.31-37.7Zm-88,90.12h64a6.09,6.09,0,0,1,4.48,2.13,8,8,0,0,1,1.52,15.28v2.16a8,8,0,0,1-1.26,15.23c-.1.13-.2.24-.3.36A33.15,33.15,0,0,1,2822,712.29c-.87.25-1.75.46-2.62.64-.9,6.11-7.67,10.87-15.9,10.87s-15-4.75-15.9-10.87c-.87-.18-1.74-.39-2.62-.64a33.26,33.26,0,0,1-18.19-12.67,8,8,0,0,1-1.3-15.24v-2.16a8,8,0,0,1,1.52-15.28,6.09,6.09,0,0,1,4.48-2.13Zm24.88-24h14.2c.76-23.26,6-38.75,12.72-58.81.73-2.17,1.48-4.4,2.27-6.78l-8.93,5a4,4,0,0,1-4.83-.42l-8.31-7.55-8.31,7.55h0a4,4,0,0,1-4.62.54l-9.14-5.08c.79,2.38,1.54,4.61,2.26,6.78,6.74,20.07,11.94,35.56,12.7,58.82Zm55.18-114.19a67.77,67.77,0,0,1,19.91,48.07c0,21.13-9.16,33.41-17.7,44.87-6.34,8.5-12.28,16.47-12.28,27.25a6,6,0,0,1-6,6h-64a6,6,0,0,1-6-6c0-10.79-5.94-18.75-12.28-27.25-8.54-11.45-17.7-23.73-17.7-44.87a68,68,0,0,1,116.05-48.07Z" transform="translate(-2696.64 -467.79)"/></svg>