<svg id="Layer_1" data-name="Layer 1" xmlns="http://www.w3.org/2000/svg" viewBox="0 0 37.26 41.96"><defs><style>.cls-1{fill:#fff;}</style></defs><title>icon-square</title><path class="cls-1" d="M58.19,20,40.35,10.19a.85.85,0,0,0-.82,0L21.81,20a.85.85,0,0,0-.44.74V41.4a.85.85,0,0,0,.44.74l17.75,9.78A.85.85,0,0,0,40,52a.86.86,0,0,0,.41-.11l17.8-9.87a.84.84,0,0,0,.44-.74V20.79A.85.85,0,0,0,58.19,20ZM40,39.91l-7.2-4L39.86,32l7.2,4ZM31,25.45v0h0Zm.89.76,7.28-4v8.31l-7.28,4Zm9,4.42V22.23l7.25,4v8.4Zm8-5.91-7.14-3.95,7.14-3.95L56,20.77Zm-17.77,0-7.14-3.95L31,16.82l7.14,3.95Zm-8-2.48,7.08,3.91v8.34l-7.08-3.91ZM39.13,41.37v8.37l-7.28-4V37.35Zm1.7,0,7.25-4v8.34l-7.25,4Zm8.94-15.25,7.15-4v8.37l-7.15,4ZM39.94,11.9l7.14,3.95-7.14,3.95-7.14-3.95ZM23.07,32.5l7.08,3.91V44.8l-7.07-3.9Zm26.7,12.28V36.45l7.15-4v8.32Z" transform="translate(-21.37 -10.08)"/></svg>