<svg id="隔离模式" xmlns="http://www.w3.org/2000/svg" viewBox="0 0 280.4 61.59"><defs><style>.cls-1{fill:#fff;}</style></defs><title>logo-nav</title><path class="cls-1" d="M227.94,137.43V168.1a16.17,16.17,0,1,1-32.35,0V137.43H184.74V168.1a27,27,0,0,0,44.59,20.52l9.49,5.28V137.43Z" transform="translate(-184.74 -134.12)"/><path class="cls-1" d="M323.49,137.43V168.1a16.18,16.18,0,1,1-32.35,0V137.43H280.27V168.1a27,27,0,0,0,44.59,20.52l9.47,5.28V137.43Z" transform="translate(-184.74 -134.12)"/><path class="cls-1" d="M352.72,195.16V164.49a16.19,16.19,0,1,1,32.37,0v30.67H396V164.49A27,27,0,0,0,351.38,144l-9.5-5.26v56.46Z" transform="translate(-184.74 -134.12)"/><path class="cls-1" d="M465,164.2H454.18a18.83,18.83,0,0,0-37.66,0H405.67a29.69,29.69,0,0,1,59.37,0Z" transform="translate(-184.74 -134.12)"/><path class="cls-1" d="M435.25,193.94a29.71,29.71,0,0,1-24.76-46l9.08,6a18.83,18.83,0,1,0,31.49,20.64l9.06,6a29.47,29.47,0,0,1-18.76,12.8A31.35,31.35,0,0,1,435.25,193.94Z" transform="translate(-184.74 -134.12)"/><polygon class="cls-1" points="79.24 12.03 79.24 0 68.39 0 68.39 12.03 59.38 12.03 59.38 22.9 68.39 22.9 68.39 61.59 79.24 61.59 79.24 22.9 87.56 22.9 87.56 12.03 79.24 12.03"/><path class="cls-1" d="M465.13,169.36c.11-7.69-.47-10.19-.63-10.75H415.75v10.86h49.37Z" transform="translate(-184.74 -134.12)"/></svg>