<svg id="隔离模式" xmlns="http://www.w3.org/2000/svg" xmlns:xlink="http://www.w3.org/1999/xlink" viewBox="0 0 118.02 45.51"><defs><style>.cls-1{fill:#fff;}.cls-2{fill:url(#linear-gradient);}.cls-3{fill:url(#linear-gradient-2);}.cls-4{fill:url(#linear-gradient-3);}.cls-5{fill:url(#linear-gradient-4);}.cls-6{fill:url(#linear-gradient-5);}</style><linearGradient id="linear-gradient" x1="-5.18" y1="532.11" x2="-5.18" y2="546.51" gradientUnits="userSpaceOnUse"><stop offset="0" stop-color="#dadf00"/><stop offset="1" stop-color="#1eaa39"/></linearGradient><linearGradient id="linear-gradient-2" x1="-77.98" y1="522.41" x2="-47" y2="522.41" xlink:href="#linear-gradient"/><linearGradient id="linear-gradient-3" x1="-75" y1="542.99" x2="-42.41" y2="542.99" gradientUnits="userSpaceOnUse"><stop offset="0.03" stop-color="#00913a"/><stop offset="1" stop-color="#8dc21f"/></linearGradient><linearGradient id="linear-gradient-4" x1="-77.93" y1="537.23" x2="-67.53" y2="537.23" xlink:href="#linear-gradient"/><linearGradient id="linear-gradient-5" x1="-78.29" y1="523.74" x2="-54.83" y2="523.74" gradientUnits="userSpaceOnUse"><stop offset="0" stop-color="#00913a"/><stop offset="1" stop-color="#8dc21f"/></linearGradient></defs><title>logo-green</title><path class="cls-1" d="M-27.77,530.67v8.73a4.61,4.61,0,0,1-4.6,4.61A4.61,4.61,0,0,1-37,539.4v-8.73h-3.09v8.73a7.71,7.71,0,0,0,7.7,7.7,7.64,7.64,0,0,0,5-1.86l2.7,1.5V530.67Z" transform="translate(78.29 -505.07)"/><path class="cls-2" d="M-.58,530.67v8.73A4.61,4.61,0,0,1-5.18,544a4.61,4.61,0,0,1-4.6-4.61v-8.73h-3.09v8.73a7.71,7.71,0,0,0,7.7,7.7,7.64,7.64,0,0,0,5-1.86l2.7,1.5V530.67Z" transform="translate(78.29 -505.07)"/><path class="cls-1" d="M7.74,547.1v-8.73a4.61,4.61,0,1,1,9.21,0v8.73H20v-8.73a7.68,7.68,0,0,0-12.69-5.84L4.65,531V547.1Z" transform="translate(78.29 -505.07)"/><path class="cls-1" d="M39.7,538.29H36.61a5.36,5.36,0,0,0-10.72,0H22.81a8.45,8.45,0,0,1,16.9,0Z" transform="translate(78.29 -505.07)"/><path class="cls-1" d="M31.23,546.75a8.45,8.45,0,0,1-7-13.09l2.58,1.69a5.37,5.37,0,0,0,1.54,7.42,5.36,5.36,0,0,0,7.42-1.55l2.58,1.7A8.39,8.39,0,0,1,33,546.57,8.93,8.93,0,0,1,31.23,546.75Z" transform="translate(78.29 -505.07)"/><polygon class="cls-1" points="60.77 28.08 60.77 24.66 57.69 24.66 57.69 28.08 55.12 28.08 55.12 31.18 57.69 31.18 57.69 42.19 60.77 42.19 60.77 31.18 63.14 31.18 63.14 28.08 60.77 28.08"/><path class="cls-1" d="M39.73,539.76a12.16,12.16,0,0,0-.18-3.06H25.68v3.09H39.73Z" transform="translate(78.29 -505.07)"/><path class="cls-3" d="M-75.15,536.21c1-2.83,4.34-6.15,9.8-9.32a65.55,65.55,0,0,1,18.35-7q-.58-2.06-1.25-4.06A50.13,50.13,0,0,0-53,505.07a56.08,56.08,0,0,0-15.65,6,29.86,29.86,0,0,0-5.77,4.25,20.77,20.77,0,0,0-.17,9.28c-2.5,2.47-3.65,4.82-3.33,6.74.25,1.22.65,2.82,1,4,.3.79.69,1.85,1,2.62l.89,1.78A4.21,4.21,0,0,1-75.15,536.21Z" transform="translate(78.29 -505.07)"/><path class="cls-4" d="M-42.41,548.84a88.71,88.71,0,0,0-3.65-13.44c-8.07,3.08-16.77,4.65-23,4a27.65,27.65,0,0,0,1.53,3.7,19,19,0,0,1-3.13-.56c-2.23-.62-3.66-1.6-4.34-2.83.38.67.94,1.53,1.35,2.18C-73.66,541.92-64.43,555.23-42.41,548.84Z" transform="translate(78.29 -505.07)"/><path class="cls-5" d="M-69.07,539.43a27.65,27.65,0,0,0,1.53,3.7,19,19,0,0,1-3.13-.56c-2.23-.62-3.66-1.6-4.34-2.83L-75.9,538c-.32-.78-.75-1.82-1-2.62-.35-1.2-.75-2.8-1-4,.3,1.79,1.86,3.21,4.76,4a18,18,0,0,0,3.15.56,30.32,30.32,0,0,0,.95,3.5Z" transform="translate(78.29 -505.07)"/><path class="cls-6" d="M-54.83,535A46.57,46.57,0,0,1-70,536.56a19.2,19.2,0,0,1-3.15-.57c-2.91-.81-4.47-2.22-4.76-4l-.07-.47a25.15,25.15,0,0,1-.28-4.52,25.71,25.71,0,0,1,.5-4.46,26.26,26.26,0,0,1,1.27-4.34,26.69,26.69,0,0,1,2-4.16,26.79,26.79,0,0,1,2.33-3.26c-2.24,2.65-1.82,5,1.6,5.92,2.8.77,7,.46,11.38-.65A138.84,138.84,0,0,0-54.83,535Z" transform="translate(78.29 -505.07)"/></svg>