<svg id="Layer_1" data-name="Layer 1" xmlns="http://www.w3.org/2000/svg" viewBox="0 0 1843 1845"><defs><style>.cls-1{fill:none;stroke:#8a2191;stroke-miterlimit:10;}</style></defs><title>luowen</title><rect class="cls-1" x="1.5" y="1.5" width="1840" height="1842"/><path class="cls-1" d="M1920.5,1921.5H79.5V78.5h1841Zm-1840-1h1839V79.5H80.5Z" transform="translate(-78.5 -77.5)"/><path class="cls-1" d="M1920.5,1921.5H79.5V78.5h1841Zm-1840-1h1839V79.5H80.5Z" transform="translate(-78.5 -77.5)"/><path class="cls-1" d="M1921,1922H79V78H1921ZM80,1921H1920v0Zm1-1H1919V80H81Z" transform="translate(-78.5 -77.5)"/><path class="cls-1" d="M1726.87,1918.89l-.5-.06L81.13,1726l.06-.5L274.13,79.11l.5.06L1919.87,272l-.06.5L1726.93,1918.39ZM82.24,1725.16,1726,1917.78,1918.76,272.84,275,80.22Z" transform="translate(-78.5 -77.5)"/><path class="cls-1" d="M1727.31,1919.45l-1-.12L80.58,1726.48l.12-1,193-1646.93,1,.12L1920.42,271.52l-.12,1L1727.43,1918.45ZM82.8,1724.72l1642.76,192.5,192.64-1644L275.44,80.77Zm-1.11.88,422.69,49.53L81.69,1725.6h0ZM1170,184.59l749.3,87.81-.06.5-93.4,797,93.46-797.54ZM274.57,79.66,195.4,755.27Z" transform="translate(-78.5 -77.5)"/><path class="cls-1" d="M1552.52,1898l-.49-.12L101.89,1551.67l.12-.49L448.48,100l.49.12L1899.11,446.33l-.12.49ZM103.1,1550.93,1551.78,1896.8,1897.9,447.07,449.22,101.2Z" transform="translate(-78.5 -77.5)"/><path class="cls-1" d="M1401.88,1859.53l-.47-.17L140.26,1401l.17-.47L599.12,138.47,1860.74,597ZM141.54,1400.4l1259.74,457.84L1859.46,597.6,599.72,139.75Z" transform="translate(-78.5 -77.5)"/><path class="cls-1" d="M1267.68,1810.82l-.45-.23L188.88,1266.77l.23-.45L733.32,187.18l.45.23L1812.12,731.23l-.23.45-544,1078.69ZM190.22,1266.32l1077,543.15,543.54-1077.8-1077-543.15Z" transform="translate(-78.5 -77.5)"/><path class="cls-1" d="M1150.22,1753.55l-.42-.28-903.74-604,.28-.42L850.78,244.45l.42.28,903.74,604-.28.42ZM247.45,1149l902.5,603.17L1753.55,849,851.06,245.84Z" transform="translate(-78.5 -77.5)"/><path class="cls-1" d="M1056.84,1689.11l-.38-.32-746-633,.32-.38L944.17,308.89l.38.32,746,632.95-.32.38Zm-745-633.39,744.88,632,632.43-745.42-744.87-632Z" transform="translate(-78.5 -77.5)"/><path class="cls-1" d="M977.78,1621.82l-.34-.37L377.67,976.73l.37-.34,645.19-600.2.34.37,599.77,644.72-.37.34Zm-598.7-645,598.75,643.63,644.09-599.19L1023.17,377.6Z" transform="translate(-78.5 -77.5)"/><path class="cls-1" d="M917.78,1553.85l-.3-.4L445.59,916.68l.4-.3,637.23-472.23.3.4,471.89,636.76-.4.3ZM447,916.89l471,635.56,636-471.34L1083,445.55Z" transform="translate(-78.5 -77.5)"/><path class="cls-1" d="M869.7,1486.72l-.25-.43L512.69,868.55l.43-.25,618.18-357,.25.43,356.76,617.73-.43.25ZM514.05,868.92l356,616.44,616.88-356.28-356-616.43Z" transform="translate(-78.5 -77.5)"/><path class="cls-1" d="M835,1422.33l-.2-.46L577,833.82l.46-.2L1166,575.67l.2.46L1424,1164.18l-.46.2Zm-256.65-588L835.53,1421l587.11-257.35L1165.47,577Z" transform="translate(-78.5 -77.5)"/><path class="cls-1" d="M810,1361.1l-.15-.48L638.26,808.78l.48-.15L1191,636.9l.15.48,171.6,551.85-.48.15ZM639.52,809.43l171.16,550.41,550.81-171.28L1190.33,638.15Z" transform="translate(-78.5 -77.5)"/><path class="cls-1" d="M792.41,1302.89l-.09-.49L696.47,791.13,697,791l511.63-95.92.09.49,95.86,511.26-.49.09Zm-94.78-511,95.58,509.79,510.16-95.65-95.58-509.79Z" transform="translate(-78.5 -77.5)"/><path class="cls-1" d="M783.14,1249.35l0-.5-33.1-467,.5,0,467.37-33.13,0,.5,33.11,467-.5,0Zm-32.07-466.6,33,465.53,465.87-33-33-465.53Z" transform="translate(-78.5 -77.5)"/><path class="cls-1" d="M1201.87,1219.29l-.5,0-421.31-19.06,0-.5,19.05-421,.5,0,421.31,19.06,0,.5Zm-420.76-20,419.81,19,19-419.5-419.81-19Z" transform="translate(-78.5 -77.5)"/><path class="cls-1" d="M1157.88,1216.77l-.49-.08-374.77-60.46.08-.49,60.42-374.5,375.26,60.55-.08.49Zm-374.11-61.37,373.29,60.23,60.18-373L843.95,782.38Z" transform="translate(-78.5 -77.5)"/><path class="cls-1" d="M1119,1209.89l-.48-.13-329-92.44L882,788.11l329.44,92.58-.13.48Zm-328.21-93.27,327.52,92,92-327.27-327.51-92Z" transform="translate(-78.5 -77.5)"/><path class="cls-1" d="M1083.94,1200.14l-.46-.19L799.29,1082.3l.19-.46,117.57-284,.46.19L1201.7,915.7l-.19.46ZM800.6,1081.76l282.8,117.08,117-282.6L917.6,799.16Z" transform="translate(-78.5 -77.5)"/><path class="cls-1" d="M1053.76,1187.69l-.44-.24L811.77,1052.12l.24-.44L947.24,810.31l.44.24,241.55,135.32-.24.44ZM813.13,1051.74l240.24,134.59,134.49-240.07L947.62,811.67Z" transform="translate(-78.5 -77.5)"/><path class="cls-1" d="M1028.11,1173.35l-202-146.87L972.89,824.65l202,146.87ZM827.52,1026.26,1027.88,1172l145.59-200.22L973.12,826Z" transform="translate(-78.5 -77.5)"/><path class="cls-1" d="M1006.65,1157.83l-.37-.34L841.67,1005l.34-.37,152.34-164.5.37.34L1159.33,993l-.34.37ZM843.08,1005l163.52,151.43L1157.91,993,994.4,841.59Z" transform="translate(-78.5 -77.5)"/><path class="cls-1" d="M1028.11,1173.35l-202-146.87L972.89,824.65l202,146.87ZM827.52,1026.26,1027.88,1172l145.59-200.22L973.12,826Z" transform="translate(-78.5 -77.5)"/><path class="cls-1" d="M1006.11,1157.85l-.37-.34-164.1-153,.34-.37,152.9-164,.37.34,164.1,153-.34.37Zm-163.05-153.4,163,152,151.87-162.88-163-152Z" transform="translate(-78.5 -77.5)"/><path class="cls-1" d="M1028.11,1173.35l-202-146.87L972.89,824.65l202,146.87ZM827.52,1026.26,1027.88,1172l145.59-200.22L973.12,826Z" transform="translate(-78.5 -77.5)"/><path class="cls-1" d="M1006.58,1157.83l-.37-.34L841.67,1005l.34-.37L994.42,840.17,1159.33,993l-.34.37Zm-163.5-152.92,163.45,151.5,151.39-163.32L994.47,841.59Z" transform="translate(-78.5 -77.5)"/><path class="cls-1" d="M989.49,1141.7,857.81,987.88l153.7-131.58,131.67,153.81ZM859.22,988,989.6,1140.29,1141.78,1010,1011.41,857.71Z" transform="translate(-78.5 -77.5)"/><path class="cls-1" d="M975.69,1125.47,874,974.1l151.26-101.57.28.42,101.36,151-.42.28ZM875.44,974.37,976,1124.08l149.6-100.46L1025,873.92Z" transform="translate(-78.5 -77.5)"/><path class="cls-1" d="M965.07,1109.52,890,963.49l145.93-75,75.06,146Zm-73.72-145.6,74.15,144.26,144.15-74.09L1035.5,889.83Z" transform="translate(-78.5 -77.5)"/><path class="cls-1" d="M957.33,1094.2l-52-138.43,138.33-52,52,138.43ZM906.62,956.35l51.29,136.56,136.46-51.26-51.3-136.56Z" transform="translate(-78.5 -77.5)"/><path class="cls-1" d="M951.79,1079.57l-.12-.49L920,950.24l.49-.12,128.75-31.68.12.49L1081,1047.76l-.49.12ZM921.18,951l31.35,127.39L1079.82,1047l-31.35-127.39Z" transform="translate(-78.5 -77.5)"/><path class="cls-1" d="M948.38,1065.89,933.65,946.83l.5-.06,118.48-14.66,14.73,119.06ZM934.76,947.7l14.49,117.08,117-14.48-14.49-117.08Z" transform="translate(-78.5 -77.5)"/><path class="cls-1" d="M946.75,1053.29l-.5-108.07,108-.5v.5l.5,107.57h-.5Zm.5-107.08.49,106.07,106-.49-.49-106.07Z" transform="translate(-78.5 -77.5)"/><path class="cls-1" d="M1043.34,1052.86l-.5-.06-96.18-10.92,11-96.75,96.67,11-.06.5ZM947.78,1041l94.69,10.75L1053.22,957l-94.69-10.75Z" transform="translate(-78.5 -77.5)"/><path class="cls-1" d="M1033.12,1051.73l-.49-.12-84.85-20,20.09-85.4,85.34,20.07-.12.49ZM949,1030.92l83.39,19.61L1052,967.08l-83.39-19.61Z" transform="translate(-78.5 -77.5)"/><path class="cls-1" d="M1024.19,1049.61l-.47-.17-73.82-26.71,26.9-74.34,74.29,26.88-.17.47Zm-73-27.48,72.41,26.19,26.21-72.46-72.4-26.2Z" transform="translate(-78.5 -77.5)"/><path class="cls-1" d="M1016.32,1046.81l-.45-.22-63.18-31.73,32-63.67,63.62,32-.22.45ZM954,1014.42l61.84,31.05L1047,983.59l-61.84-31.06Z" transform="translate(-78.5 -77.5)"/><path class="cls-1" d="M1009.53,1043.49,956,1008.06l35.46-53.55L1045,989.94l-.28.42Zm-52.13-35.71,51.84,34.33,34.35-51.88-51.84-34.33Z" transform="translate(-78.5 -77.5)"/><path class="cls-1" d="M1003.77,1039.8l-44.06-37.5,37.53-44.1,44.06,37.5Zm-42.65-37.61,42.54,36.2,36.23-42.57-42.54-36.21Z" transform="translate(-78.5 -77.5)"/><path class="cls-1" d="M999.09,1035.88l-35.47-38.26,38.29-35.5,35.47,38.26ZM965,997.67l34.11,36.79,36.82-34.13-34.11-36.8Z" transform="translate(-78.5 -77.5)"/><path class="cls-1" d="M995.3,1031.88l-27.68-38.05,38.08-27.7,27.68,38.05ZM969,994l26.51,36.43L1032,1004l-26.5-36.44Z" transform="translate(-78.5 -77.5)"/><path class="cls-1" d="M992.35,1027.9l-20.75-37,37.06-20.77.25.44,20.5,36.6ZM973,991.25l19.77,35.29,35.32-19.79-19.77-35.29Z" transform="translate(-78.5 -77.5)"/><path class="cls-1" d="M990.12,1024l-14.65-35.39L1010.88,974l14.65,35.39Zm-13.35-34.85,13.89,33.54,33.57-13.9-13.89-33.55Z" transform="translate(-78.5 -77.5)"/><path class="cls-1" d="M988.52,1020.32,979.17,987l33.32-9.35,9.34,33.29Zm-8.11-32.6,8.8,31.36,31.39-8.81-8.8-31.36Z" transform="translate(-78.5 -77.5)"/><path class="cls-1" d="M987.49,1016.84,982.65,986l30.86-4.84,4.84,30.84Zm-3.7-30,4.53,28.86,28.89-4.53-4.53-28.87Z" transform="translate(-78.5 -77.5)"/><path class="cls-1" d="M986.92,1013.61l-1-28.18,28.2-1,1,28.18Zm0-27.21,1,26.18,26.2-1-1-26.18Z" transform="translate(-78.5 -77.5)"/><path class="cls-1" d="M1012.18,1012.73l-25.41-2.06,2.05-25.39,25.41,2.06Zm-24.33-3,23.42,1.9,1.89-23.4-23.42-1.9Z" transform="translate(-78.5 -77.5)"/><path class="cls-1" d="M1009.53,1012.56,986.93,1008l4.54-22.58,22.59,4.55Zm-21.42-5.33,20.63,4.15,4.15-20.61-20.63-4.15Z" transform="translate(-78.5 -77.5)"/><path class="cls-1" d="M1007.18,1012.13l-19.81-6.47,6.46-19.8,19.81,6.47ZM988.63,1005l17.91,5.85,5.84-17.89-17.91-5.85Z" transform="translate(-78.5 -77.5)"/><path class="cls-1" d="M1005,1011.54l-17.07-8,8-17.06,17.07,8Zm-15.74-8.5,15.26,7.17,7.16-15.24-15.26-7.17Z" transform="translate(-78.5 -77.5)"/><path class="cls-1" d="M1003.28,1010.74l-14.52-9,9-14.51,14.52,9Zm-13.15-9.3,12.82,7.92,7.91-12.81L998,988.63Z" transform="translate(-78.5 -77.5)"/><path class="cls-1" d="M1001.74,1009.86l-12.1-9.63,9.62-12.09,12.1,9.63Zm-10.7-9.79,10.54,8.39,8.38-10.53-10.54-8.39Z" transform="translate(-78.5 -77.5)"/><path class="cls-1" d="M1000.41,1008.91l-9.82-10,10-9.81,9.82,10Zm-8.4-10,8.42,8.58,8.57-8.41-8.42-8.58Z" transform="translate(-78.5 -77.5)"/><path class="cls-1" d="M999.38,1007.92l-7.8-10,10-7.79,7.79,10ZM993,998l6.57,8.47L1008,1000l-6.57-8.47Z" transform="translate(-78.5 -77.5)"/><path class="cls-1" d="M998.55,1006.92l-6-9.88,9.88-6,6,9.88ZM994,997.38l4.93,8.17,8.16-4.93-4.93-8.17Z" transform="translate(-78.5 -77.5)"/><path class="cls-1" d="M997.91,1005.95l-4.36-9.54,9.54-4.35,4.36,9.54Zm-3-9,3.53,7.72,7.72-3.52-3.53-7.72Z" transform="translate(-78.5 -77.5)"/><path class="cls-1" d="M997.44,1005l-3-9.07,9.07-2.95,2.95,9.07Zm-1.69-8.43,2.33,7.17,7.16-2.33-2.33-7.17Z" transform="translate(-78.5 -77.5)"/><path class="cls-1" d="M997.1,1004.11l-1.72-8.52,8.51-1.71,1.71,8.52Zm-.54-7.73,1.32,6.56,6.55-1.32-1.32-6.56Z" transform="translate(-78.5 -77.5)"/><path class="cls-1" d="M996.9,1003.29l-.68-7.89,7.88-.68.68,7.89Zm.4-7,.51,5.9,5.89-.51-.51-5.9Z" transform="translate(-78.5 -77.5)"/><path class="cls-1" d="M1004,1002.71l-7.22-.19.19-7.22,7.22.19Zm-6.19-1.17,5.22.14.14-5.22-5.22-.14Z" transform="translate(-78.5 -77.5)"/></svg>