<svg id="icons" xmlns="http://www.w3.org/2000/svg" viewBox="0 0 60.31 64"><defs><style>.cls-1{fill:#363f40;}.cls-2{fill:#313534;}</style></defs><title>passion</title><rect class="cls-1" x="38.31" y="51" width="3" height="2"/><path class="cls-1" d="M415,320h-2V308a1,1,0,0,1,1-1h6a5,5,0,0,0,5-5v-9a1,1,0,0,1,1-1h5v-.78l-5.91-12.8A1,1,0,0,1,425,278a20,20,0,0,0-25.71-19.17l-.57-1.92A22,22,0,0,1,427,277.78l5.91,12.8a1,1,0,0,1,.09.42v2a1,1,0,0,1-1,1h-5v8a7,7,0,0,1-7,7h-5Z" transform="translate(-372.69 -256)"/><path class="cls-1" d="M393,320h-2V308c0-4.12-1.45-8-2.93-11.62l1.85-.76c1.56,3.81,3.08,7.9,3.08,12.38Z" transform="translate(-372.69 -256)"/><path class="cls-2" d="M385.79,265.35a2.53,2.53,0,0,0,1.81-.72,3,3,0,0,0-.28-4.21l-1.7-1.7a2.9,2.9,0,0,0-2.07-.92,2.7,2.7,0,0,0-1.91.82,2.73,2.73,0,0,0,.07,4l1.7,1.7A3.41,3.41,0,0,0,385.79,265.35Zm-2.23-5.85a1.26,1.26,0,0,1,.87.42l1.7,1.7a1.34,1.34,0,0,1,.31,1.79.88.88,0,0,1-.64.25,1.73,1.73,0,0,1-1.17-.54l-1.7-1.7a1.09,1.09,0,0,1,.64-1.93Z" transform="translate(-372.69 -256)"/><path class="cls-2" d="M383.08,268.05a2.53,2.53,0,0,0,1.81-.72,2.6,2.6,0,0,0,.73-2.14,3.46,3.46,0,0,0-1-2.07l-1.7-1.7a2.9,2.9,0,0,0-2.07-.92,2.7,2.7,0,0,0-1.91.82,2.73,2.73,0,0,0,.07,4l1.7,1.7A3.41,3.41,0,0,0,383.08,268.05Zm-2.23-5.85a1.25,1.25,0,0,1,.87.42l1.7,1.7a1.79,1.79,0,0,1,.53,1,.92.92,0,0,1-.22.74.87.87,0,0,1-.64.25,1.73,1.73,0,0,1-1.17-.54l-1.7-1.7a1.09,1.09,0,0,1,.64-1.93Z" transform="translate(-372.69 -256)"/><path class="cls-2" d="M380.38,270.75a2.53,2.53,0,0,0,1.81-.72,2.6,2.6,0,0,0,.73-2.14,3.46,3.46,0,0,0-1-2.07l-1.7-1.7a2.9,2.9,0,0,0-2.07-.92,2.84,2.84,0,0,0-2.75,2.77,2.91,2.91,0,0,0,.92,2l1.7,1.7A3.41,3.41,0,0,0,380.38,270.75Zm-2.23-5.85a1.26,1.26,0,0,1,.87.42l1.7,1.7a1.79,1.79,0,0,1,.53,1,.92.92,0,0,1-.22.74.87.87,0,0,1-.64.25,1.73,1.73,0,0,1-1.17-.54l-1.7-1.7a1.26,1.26,0,0,1-.42-.86,1,1,0,0,1,.32-.72A1,1,0,0,1,378.15,264.9Z" transform="translate(-372.69 -256)"/><path class="cls-2" d="M377.68,273.46a2.53,2.53,0,0,0,1.81-.72,3,3,0,0,0-.28-4.21l-1.7-1.7a2.9,2.9,0,0,0-2.07-.92,2.83,2.83,0,0,0-2.75,2.77,2.91,2.91,0,0,0,.92,2l1.7,1.7A3.41,3.41,0,0,0,377.68,273.46Zm-2.23-5.85a1.25,1.25,0,0,1,.87.42l1.7,1.7a1.34,1.34,0,0,1,.31,1.79.88.88,0,0,1-.64.25,1.73,1.73,0,0,1-1.17-.54l-1.7-1.7a1.26,1.26,0,0,1-.42-.86,1,1,0,0,1,.32-.72A1,1,0,0,1,375.44,267.6Z" transform="translate(-372.69 -256)"/><rect class="cls-2" x="403.79" y="272.9" width="0.85" height="10.17" transform="translate(-450.86 111.24) rotate(-45)"/><rect class="cls-2" x="400.95" y="276.36" width="0.85" height="13.13" transform="translate(-455.19 110.66) rotate(-45)"/><rect class="cls-2" x="398.55" y="279.46" width="0.85" height="16.52" transform="translate(-459.28 110.37) rotate(-45)"/><rect class="cls-2" x="401.58" y="297.94" width="0.85" height="1.18" transform="translate(-466.04 115.71) rotate(-45)"/><rect class="cls-2" x="394.56" y="283.39" width="0.85" height="16.26" transform="translate(-463.13 108.7) rotate(-45)"/><path class="cls-2" d="M389.54,286.67l12-12-6.2-6.2c2.54-6.45,1.64-7.35,1.34-7.65l0,0a2.75,2.75,0,0,0-2-.85,3,3,0,0,0-2.12.95l-2.4,2.4-2.86-2.85-1.2,1.2c.57.57.74,1.38.35,1.76a.88.88,0,0,1-.64.25,1.73,1.73,0,0,1-1.17-.54l-1.2,1.2a1.34,1.34,0,0,1,.31,1.79.88.88,0,0,1-.64.25,1.73,1.73,0,0,1-1.17-.54l-1.2,1.2a1.79,1.79,0,0,1,.53,1,.92.92,0,0,1-.22.74.87.87,0,0,1-.64.25,1.73,1.73,0,0,1-1.17-.54l-1.2,1.2a1.79,1.79,0,0,1,.53,1,.92.92,0,0,1-.22.74.88.88,0,0,1-.64.25,1.75,1.75,0,0,1-1.19-.54l-1.2,1.2h0Zm9.59-12-9.59,9.59-11-11a2.42,2.42,0,0,0,.92-.57,2.59,2.59,0,0,0,.75-2,2.53,2.53,0,0,0,2.7-2.7,2.51,2.51,0,0,0,2.69-2.7,2.56,2.56,0,0,0,2-.72,2.45,2.45,0,0,0,.57-.89l2,2,3.6-3.6a1.1,1.1,0,0,1,1.65-.13c.13.78-.82,3.9-1.84,6.42l-.21.52Z" transform="translate(-372.69 -256)"/></svg>