<svg id="icons" xmlns="http://www.w3.org/2000/svg" viewBox="0 0 156.24 147"><defs><style>.cls-1{fill:#c1c1c1;}.cls-2{fill:#c1c1c1;}</style></defs><title>procedure</title><rect class="cls-1" x="19.99" y="67.83" width="15.31" height="3.4"/><rect class="cls-1" x="19.99" y="73.78" width="15.31" height="3.4"/><rect class="cls-1" x="26.79" y="52.52" width="1.7" height="9.35"/><path class="cls-1" d="M103.32,257.28h15.31v-1.7c0-3.7.58-4.49.82-4.66a14.67,14.67,0,0,0-6.79-26.71,15.62,15.62,0,0,0-1.69-.09A14.82,14.82,0,0,0,96.1,238.83a14.63,14.63,0,0,0,6.8,12.35c.55.35.48,2.31.45,3.37,0,.36,0,.71,0,1Zm11.95-3.4h-8.51c0-2-.12-4.34-2-5.56a11.24,11.24,0,0,1-5.23-9.49A11.41,11.41,0,0,1,111,227.51a12.2,12.2,0,0,1,1.32.07,11.27,11.27,0,0,1,5.24,20.53C115.9,249.24,115.4,251.51,115.27,253.88Z" transform="translate(-83.34 -192)"/><path class="cls-1" d="M103.32,238.57H105a6.44,6.44,0,0,1,2.2-4.8,8,8,0,0,1,6.22-2l.17-1.69a9.75,9.75,0,0,0-7.53,2.39A8.12,8.12,0,0,0,103.32,238.57Z" transform="translate(-83.34 -192)"/><path class="cls-1" d="M87.59,245.37a4.25,4.25,0,1,0-4.25-4.25A4.26,4.26,0,0,0,87.59,245.37Zm0-6.8A2.55,2.55,0,1,1,85,241.12,2.55,2.55,0,0,1,87.59,238.57Z" transform="translate(-83.34 -192)"/><path class="cls-1" d="M93.54,258.13a4.25,4.25,0,1,0-4.25-4.25A4.26,4.26,0,0,0,93.54,258.13Zm0-6.8A2.55,2.55,0,1,1,91,253.88,2.55,2.55,0,0,1,93.54,251.33Z" transform="translate(-83.34 -192)"/><path class="cls-1" d="M90.14,230.07a4.25,4.25,0,1,0-4.25-4.25A4.26,4.26,0,0,0,90.14,230.07Zm0-6.8a2.55,2.55,0,1,1-2.55,2.55A2.55,2.55,0,0,1,90.14,223.26Z" transform="translate(-83.34 -192)"/><path class="cls-1" d="M104.6,222.75a3.69,3.69,0,1,0-3.69-3.69A3.69,3.69,0,0,0,104.6,222.75Zm0-5.9a2.21,2.21,0,1,1-2.21,2.21A2.21,2.21,0,0,1,104.6,216.86Z" transform="translate(-83.34 -192)"/><path class="cls-1" d="M120.76,222.41a4.25,4.25,0,1,0-4.25-4.25A4.26,4.26,0,0,0,120.76,222.41Zm0-6.8a2.55,2.55,0,1,1-2.55,2.55A2.55,2.55,0,0,1,120.76,215.61Z" transform="translate(-83.34 -192)"/><rect class="cls-1" x="24.24" y="51.67" width="6.8" height="1.7"/><path class="cls-1" d="M239.58,266.34V227L189,236.43a10.87,10.87,0,1,0-1.76,20.19Zm-4-34.57v29.82l-48.63-9-.49.17a6.91,6.91,0,1,1,1.22-12.51l.63.37Z" transform="translate(-83.34 -192)"/><rect class="cls-2" x="84.01" y="117.14" width="6.5" height="4.59"/><path class="cls-2" d="M198.39,233.61a5.58,5.58,0,0,1,1,.09,4.62,4.62,0,0,1,1.74-.63C196.94,209.72,177.58,192,154.35,192a46,46,0,0,0-33.69,14.45l3.05,3.26a41.86,41.86,0,0,1,30.64-13.12c21.08,0,38.66,16.06,42.51,37.23A5.31,5.31,0,0,1,198.39,233.61Z" transform="translate(-83.34 -192)"/><path class="cls-2" d="M214.85,276.13,209.51,262a5.06,5.06,0,0,1-1.21-.25,4.56,4.56,0,0,1-3.07,1.26l4.41,11.7h-9.8a2.23,2.23,0,0,0-2.17,2.3v20.67c0,6.33-4.86,11.48-10.83,11.48h-13a2.23,2.23,0,0,0-2.17,2.3V339H176V313.73h10.83c8.36,0,15.16-7.21,15.16-16.08V279.28h10.83a2.13,2.13,0,0,0,1.79-1A2.42,2.42,0,0,0,214.85,276.13Z" transform="translate(-83.34 -192)"/><path class="cls-2" d="M128.36,339H124V311.44c0-9.46-3.13-18.37-6.34-26.68l4-1.74c3.37,8.74,6.66,18.13,6.66,28.42Z" transform="translate(-83.34 -192)"/><path class="cls-1" d="M173.32,256.25V254.6c-3.41,0-5.79-3.4-5.79-8.27s2.38-8.27,5.79-8.27V236.4c-4.38,0-7.45,4.08-7.45,9.93S168.94,256.25,173.32,256.25Z" transform="translate(-83.34 -192)"/></svg>