<svg id="icons" xmlns="http://www.w3.org/2000/svg" viewBox="0 0 64 64"><defs><style>.cls-1{fill:#c1c1c1;}</style></defs><title>spirit</title><path class="cls-1" d="M428,170H376a3,3,0,0,1-3-3v-4a3,3,0,0,1,3-3h52a1,1,0,0,1,1,1v8A1,1,0,0,1,428,170Zm-52-8a1,1,0,0,0-1,1v4a1,1,0,0,0,1,1h51v-6Z" transform="translate(-373 -150)"/><path class="cls-1" d="M428.45,169.89l-.89-1.79,6.21-3.11-6.21-3.11.89-1.79,8,4a1,1,0,0,1,0,1.79Z" transform="translate(-373 -150)"/><rect class="cls-1" x="8" y="14" width="47" height="2"/><rect class="cls-1" x="22" y="32" width="2" height="32"/><path class="cls-1" d="M397,182h-2a10,10,0,0,1,10-10v2A8,8,0,0,0,397,182Z" transform="translate(-373 -150)"/><path class="cls-1" d="M401,182h-2a6,6,0,0,1,6-6v2A4,4,0,0,0,401,182Z" transform="translate(-373 -150)"/><rect class="cls-1" x="32" y="22" width="13" height="2"/><rect class="cls-1" x="32" y="26" width="9" height="2"/><rect class="cls-1" x="26" y="32" width="2" height="15"/><rect class="cls-1" x="18" y="47" width="2" height="17"/><rect class="cls-1" x="18" y="43" width="2" height="2"/><rect class="cls-1" x="18" y="39" width="2" height="2"/><rect class="cls-1" x="18" y="35" width="2" height="2"/><path class="cls-1" d="M412,214h-2V202a1,1,0,0,1,1-1h6a5,5,0,0,0,5-5v-9a1,1,0,0,1,1-1h5v-.78l-5.91-12.8,1.82-.84,6,13a1,1,0,0,1,.09.42v2a1,1,0,0,1-1,1h-5v8a7,7,0,0,1-7,7h-5Z" transform="translate(-373 -150)"/><path class="cls-1" d="M386.75,158.67l-1.49-1.33A22.71,22.71,0,0,1,402,150a22.13,22.13,0,0,1,16.75,7.34l-1.51,1.32A20.14,20.14,0,0,0,402,152,20.68,20.68,0,0,0,386.75,158.67Z" transform="translate(-373 -150)"/><path class="cls-1" d="M389,214h-2V202c0-4.64-1.58-9-3.25-13.53C381.91,183.42,380,178.19,380,172h2c0,5.84,1.85,10.9,3.63,15.79C387.37,192.53,389,197,389,202Z" transform="translate(-373 -150)"/><rect class="cls-1" x="7" y="11" width="2" height="8"/><rect class="cls-1" x="35" y="51" width="3" height="2"/></svg>