<svg id="icons" xmlns="http://www.w3.org/2000/svg" viewBox="0 0 56 64"><defs><style>.cls-1{fill:#363f40;}</style></defs><title>standard</title><rect class="cls-1" x="34" y="51" width="3" height="2"/><path class="cls-1" d="M415,320h-2V308a1,1,0,0,1,1-1h6a5,5,0,0,0,5-5v-9a1,1,0,0,1,1-1h5v-.78l-5.91-12.8A1,1,0,0,1,425,278a20,20,0,0,0-25.71-19.17l-.57-1.92A22,22,0,0,1,427,277.78l5.91,12.8a1,1,0,0,1,.09.42v2a1,1,0,0,1-1,1h-5v8a7,7,0,0,1-7,7h-5Z" transform="translate(-377 -256)"/><path class="cls-1" d="M393,320h-2V308c0-4.12-1.45-8-2.93-11.62l1.85-.76c1.56,3.81,3.08,7.9,3.08,12.38Z" transform="translate(-377 -256)"/><path class="cls-1" d="M394,294a17,17,0,1,1,17-17A17,17,0,0,1,394,294Zm0-32a15,15,0,1,0,15,15A15,15,0,0,0,394,262Z" transform="translate(-377 -256)"/><path class="cls-1" d="M394,294c-5,0-9-7.47-9-17s4-17,9-17,9,7.47,9,17S399,294,394,294Zm0-32c-3.79,0-7,6.87-7,15s3.21,15,7,15,7-6.87,7-15S397.79,262,394,262Z" transform="translate(-377 -256)"/><rect class="cls-1" x="2" y="14" width="30" height="2"/><rect class="cls-1" x="2" y="26" width="30" height="2"/><rect class="cls-1" x="16" y="20" width="2" height="2"/><rect class="cls-1" x="20" y="20" width="2" height="2"/><rect class="cls-1" x="12" y="20" width="2" height="2"/></svg>