<svg id="icons" xmlns="http://www.w3.org/2000/svg" viewBox="0 0 64 64"><defs><style>.cls-1{fill:#c1c1c1;}</style></defs><title>system</title><rect class="cls-1" x="42" y="51" width="3" height="2"/><path class="cls-1" d="M419,425h-2V413a1,1,0,0,1,1-1h6a5,5,0,0,0,5-5v-9a1,1,0,0,1,1-1h4.52l-5.45-13.63A1,1,0,0,1,429,383a20,20,0,0,0-20-20v-2a22,22,0,0,1,22,21.81l5.93,14.82A1,1,0,0,1,436,399h-5v8a7,7,0,0,1-7,7h-5Z" transform="translate(-373 -361)"/><path class="cls-1" d="M397,425h-2V413a29.29,29.29,0,0,0-2.57-10.74l1.86-.74A31.08,31.08,0,0,1,397,413Z" transform="translate(-373 -361)"/><path class="cls-1" d="M406,375H378a1,1,0,0,1-1-1V362a1,1,0,0,1,1-1h28a1,1,0,0,1,1,1v12A1,1,0,0,1,406,375Zm-27-2h26V363H379Z" transform="translate(-373 -361)"/><rect class="cls-1" x="18" y="16" width="2" height="10"/><path class="cls-1" d="M407,387h-2v-4H379v4h-2v-5a1,1,0,0,1,1-1h28a1,1,0,0,1,1,1Z" transform="translate(-373 -361)"/><rect class="cls-1" x="18" y="6" width="2" height="2"/><rect class="cls-1" x="22" y="6" width="2" height="2"/><rect class="cls-1" x="14" y="6" width="2" height="2"/><path class="cls-1" d="M378,399a5,5,0,1,1,5-5A5,5,0,0,1,378,399Zm0-8a3,3,0,1,0,3,3A3,3,0,0,0,378,391Z" transform="translate(-373 -361)"/><path class="cls-1" d="M392,399a5,5,0,1,1,5-5A5,5,0,0,1,392,399Zm0-8a3,3,0,1,0,3,3A3,3,0,0,0,392,391Z" transform="translate(-373 -361)"/><path class="cls-1" d="M406,399a5,5,0,1,1,5-5A5,5,0,0,1,406,399Zm0-8a3,3,0,1,0,3,3A3,3,0,0,0,406,391Z" transform="translate(-373 -361)"/></svg>