<svg id="icons" xmlns="http://www.w3.org/2000/svg" viewBox="0 0 63.88 64"><defs><style>.cls-1{fill:#363f40;}</style></defs><title>team</title><rect class="cls-1" x="41.88" y="51" width="3" height="2"/><path class="cls-1" d="M415,320h-2V308a1,1,0,0,1,1-1h6a5,5,0,0,0,5-5v-9a1,1,0,0,1,1-1h5v-.78l-5.91-12.8A1,1,0,0,1,425,278a20,20,0,0,0-25.71-19.17l-.57-1.92A22,22,0,0,1,427,277.78l5.91,12.8a1,1,0,0,1,.09.42v2a1,1,0,0,1-1,1h-5v8a7,7,0,0,1-7,7h-5Z" transform="translate(-369.12 -256)"/><path class="cls-1" d="M393,320h-2V308c0-4.12-1.45-8-2.93-11.62l1.85-.76c1.56,3.81,3.08,7.9,3.08,12.38Z" transform="translate(-369.12 -256)"/><path d="M380.87,277.92a4.7,4.7,0,1,0-4.39,0,9.55,9.55,0,0,0-7.36,9.29h19.11A9.55,9.55,0,0,0,380.87,277.92Z" transform="translate(-369.12 -256)"/><path d="M405.36,277.92a4.7,4.7,0,1,0-4.39,0,9.55,9.55,0,0,0-7.36,9.29h19.11A9.55,9.55,0,0,0,405.36,277.92Z" transform="translate(-369.12 -256)"/><path d="M393.82,277.86a6.14,6.14,0,1,0-5.74,0A12.48,12.48,0,0,0,378.46,290h25A12.48,12.48,0,0,0,393.82,277.86Z" transform="translate(-369.12 -256)"/></svg>