<?xml version="1.0" encoding="utf-8"?>
<!-- Generator: Adobe Illustrator 20.0.0, SVG Export Plug-In . SVG Version: 6.00 Build 0)  -->
<svg version="1.1" id="icons" xmlns="http://www.w3.org/2000/svg" xmlns:xlink="http://www.w3.org/1999/xlink" x="0px" y="0px"
	 viewBox="0 0 63.9 64" style="enable-background:new 0 0 63.9 64;" xml:space="preserve">
<style type="text/css">
	.st0{fill:#C1C1C1;}
</style>
<title>team</title>
<rect x="41.9" y="51" class="st0" width="3" height="2"/>
<path class="st0" d="M45.9,64h-2V52c0-0.6,0.4-1,1-1h6c2.8,0,5-2.2,5-5v-9c0-0.6,0.4-1,1-1h5v-0.8L56,22.4c-0.1-0.1-0.1-0.3-0.1-0.4
	c0-11-9-20-20-20c-1.9,0-3.9,0.3-5.7,0.8l-0.6-1.9C41.2-2.6,53.5,4.1,57,15.7c0.6,2,0.9,4,0.9,6.1l5.9,12.8c0.1,0.1,0.1,0.3,0.1,0.4
	v2c0,0.6-0.4,1-1,1h-5v8c0,3.9-3.1,7-7,7h-5V64z"/>
<path class="st0" d="M23.9,64h-2V52c0-4.1-1.5-8-2.9-11.6l1.9-0.8c1.6,3.8,3.1,7.9,3.1,12.4V64z"/>
<path class="st0" d="M11.8,21.9c2.3-1.2,3.2-4.1,2-6.4c-1.2-2.3-4.1-3.2-6.4-2c-2.3,1.2-3.2,4.1-2,6.4c0.4,0.8,1.1,1.5,2,2
	C3,22.9,0,26.8,0,31.2h19.1C19.1,26.8,16.1,22.9,11.8,21.9z"/>
<path class="st0" d="M36.2,21.9c2.3-1.2,3.2-4.1,2-6.4c-1.2-2.3-4.1-3.2-6.4-2c-2.3,1.2-3.2,4.1-2,6.4c0.4,0.8,1.1,1.5,2,2
	c-4.3,1-7.4,4.9-7.4,9.3h19.1C43.6,26.8,40.6,22.9,36.2,21.9z"/>
<path class="st0" d="M24.7,21.9c3-1.6,4.1-5.3,2.6-8.3c-1.6-3-5.3-4.1-8.3-2.6s-4.1,5.3-2.6,8.3c0.6,1.1,1.5,2,2.6,2.6
	c-5.6,1.3-9.6,6.4-9.6,12.1h25C34.3,28.2,30.3,23.2,24.7,21.9z"/>
</svg>
