<svg id="icons" xmlns="http://www.w3.org/2000/svg" viewBox="0 0 57.43 64"><defs><style>.cls-1{fill:#363f40;}.cls-2{fill:#313534;}</style></defs><title>vision</title><rect class="cls-1" x="35.43" y="51" width="3" height="2"/><path class="cls-1" d="M415,320h-2V308a1,1,0,0,1,1-1h6a5,5,0,0,0,5-5v-9a1,1,0,0,1,1-1h5v-.78l-5.91-12.8A1,1,0,0,1,425,278a20,20,0,0,0-25.71-19.17l-.57-1.92A22,22,0,0,1,427,277.78l5.91,12.8a1,1,0,0,1,.09.42v2a1,1,0,0,1-1,1h-5v8a7,7,0,0,1-7,7h-5Z" transform="translate(-375.57 -256)"/><path class="cls-1" d="M393,320h-2V308c0-4.12-1.45-8-2.93-11.62l1.85-.76c1.56,3.81,3.08,7.9,3.08,12.38Z" transform="translate(-375.57 -256)"/><circle class="cls-2" cx="28.64" cy="8.3" r="2.2"/><path class="cls-2" d="M382.94,282.07c-2.75-.56-7.37-1.91-7.37-4.55s4.61-4,7.37-4.55l.32,1.57c-4.18.86-6.09,2.15-6.09,3s1.9,2.13,6.09,3Z" transform="translate(-375.57 -256)"/><path class="cls-2" d="M405.06,282.07l-.32-1.57c4.18-.86,6.08-2.15,6.08-3s-1.9-2.13-6.08-3l.32-1.57c2.75.56,7.37,1.91,7.37,4.55S407.81,281.51,405.06,282.07Z" transform="translate(-375.57 -256)"/><path class="cls-2" d="M405.57,272.59l-1.34-.88c2.35-3.56,2.78-5.82,2.19-6.41s-2.85-.16-6.41,2.19l-.88-1.34c2.34-1.55,6.56-3.86,8.43-2S407.11,270.25,405.57,272.59Z" transform="translate(-375.57 -256)"/><path class="cls-2" d="M383.15,291.18a2.58,2.58,0,0,1-1.9-.7c-1.87-1.87.44-6.08,2-8.43l1.34.88c-2.35,3.56-2.78,5.82-2.19,6.41s2.85.16,6.41-2.19l.88,1.34C387.95,289.63,385.22,291.18,383.15,291.18Z" transform="translate(-375.57 -256)"/><path class="cls-2" d="M390.66,282.82l-.95-.08a41.2,41.2,0,0,1-4.77-.67l-1.16-.24.65-1a41.15,41.15,0,0,1,2.9-3.84l.61-.73.61.73c.53.62,1.08,1.25,1.66,1.86l.2.22v.3c0,.84.08,1.68.15,2.49Zm-4.19-2.1c.78.13,1.6.24,2.45.33,0-.43-.05-.87-.07-1.31l-.88-1Q387.15,279.76,386.46,280.73Z" transform="translate(-375.57 -256)"/><path class="cls-2" d="M400.45,278.76l-.61-.73c-.53-.62-1.08-1.25-1.66-1.86L398,276v-.3c0-.84-.08-1.68-.15-2.49l-.08-.95.95.08a41.21,41.21,0,0,1,4.77.67l1.16.24-.65,1a41.18,41.18,0,0,1-2.9,3.84Zm-.89-3.46.88,1q.8-1,1.5-2c-.78-.13-1.6-.24-2.45-.33C399.52,274.42,399.54,274.86,399.56,275.3Z" transform="translate(-375.57 -256)"/><path class="cls-2" d="M397.18,266.18c-.86-4.18-2.15-6.09-3-6.09s-2.13,1.9-3,6.09l-1.57-.32c.56-2.75,1.9-7.37,4.55-7.37s4,4.61,4.55,7.37Z" transform="translate(-375.57 -256)"/><path class="cls-2" d="M394.2,296.55c-2.65,0-4-4.61-4.55-7.37l1.57-.32c.86,4.18,2.15,6.09,3,6.09s2.13-1.9,3-6.09l1.57.32C398.19,291.93,396.85,296.55,394.2,296.55Z" transform="translate(-375.57 -256)"/><path class="cls-2" d="M399.5,274l-.95-.08c-.81-.07-1.65-.12-2.49-.15h-.3l-.22-.2c-.62-.57-1.24-1.13-1.86-1.66l-.73-.61.73-.61a41.23,41.23,0,0,1,3.84-2.9l1-.65.24,1.16a41.12,41.12,0,0,1,.67,4.77Zm-3.08-1.82,1.31.07c-.09-.85-.2-1.67-.33-2.45q-1,.69-2,1.5Z" transform="translate(-375.57 -256)"/><path class="cls-2" d="M389.89,287.94l-.24-1.16A41.12,41.12,0,0,1,389,282l-.08-.95.95.08c.81.07,1.65.12,2.49.15h.3l.22.2c.62.57,1.24,1.13,1.86,1.66l.73.61-.73.61a41.23,41.23,0,0,1-3.84,2.9Zm.78-5.12c.09.85.2,1.67.33,2.45q1-.69,2-1.5l-1-.88Z" transform="translate(-375.57 -256)"/><path class="cls-2" d="M394.42,283l-2.14-.07c-.87,0-1.73-.08-2.57-.15l-.67-.06L389,282c-.07-.84-.12-1.7-.15-2.57l-.07-2.14,1.46,1.57c.43.47.87.92,1.3,1.34s.88.86,1.34,1.3Z" transform="translate(-375.57 -256)"/><path class="cls-2" d="M399.65,277.74l-1.46-1.57c-.43-.47-.87-.92-1.3-1.34s-.88-.86-1.34-1.3L394,272.07l2.14.07c.87,0,1.73.08,2.57.15l.67.06.06.67c.07.84.12,1.7.15,2.57Z" transform="translate(-375.57 -256)"/><path class="cls-2" d="M383.23,273c-1.55-2.34-3.86-6.56-2-8.43s6.08.44,8.43,2l-.88,1.34c-3.56-2.35-5.82-2.78-6.41-2.19s-.16,2.85,2.19,6.41Z" transform="translate(-375.57 -256)"/><path class="cls-2" d="M405.65,291.58c-2.07,0-4.8-1.55-6.52-2.69l.88-1.34c3.56,2.35,5.82,2.79,6.41,2.19s.16-2.85-2.19-6.41l1.34-.88c1.55,2.34,3.86,6.56,2,8.43A2.58,2.58,0,0,1,405.65,291.58Z" transform="translate(-375.57 -256)"/><path class="cls-2" d="M397.74,282.82l.08-.95c.07-.81.12-1.65.15-2.49v-.3l.2-.22c.57-.61,1.13-1.24,1.66-1.86l.61-.73.61.73a41.18,41.18,0,0,1,2.9,3.84l.65,1-1.16.24a41.21,41.21,0,0,1-4.77.67Zm1.82-3.08c0,.44,0,.88-.07,1.31.85-.09,1.67-.2,2.45-.33q-.69-1-1.5-2Z" transform="translate(-375.57 -256)"/><path class="cls-2" d="M387.95,278.76l-.61-.73a41.15,41.15,0,0,1-2.9-3.84l-.65-1,1.16-.24a41.2,41.2,0,0,1,4.77-.67l.95-.08-.08.95c-.07.81-.12,1.65-.15,2.49v.3l-.2.22c-.57.61-1.13,1.24-1.66,1.86Zm-1.48-4.45q.69,1,1.5,2l.88-1c0-.44,0-.88.07-1.31C388.06,274.08,387.24,274.19,386.46,274.32Z" transform="translate(-375.57 -256)"/><path class="cls-2" d="M390.5,281.53,389,280c-.59-.63-1.17-1.28-1.71-1.92l-.44-.52.44-.52c.54-.64,1.12-1.29,1.71-1.92l1.46-1.57-.07,2.14c0,.65,0,1.26,0,1.87s0,1.21,0,1.87Z" transform="translate(-375.57 -256)"/><path class="cls-2" d="M397.9,281.53l.07-2.14c0-.65,0-1.26,0-1.87s0-1.21,0-1.87l-.07-2.14,1.46,1.57c.59.63,1.17,1.28,1.71,1.92l.44.52-.44.52c-.54.64-1.12,1.29-1.71,1.92Z" transform="translate(-375.57 -256)"/><path class="cls-2" d="M398.51,287.94l-1-.65a41.23,41.23,0,0,1-3.84-2.9l-.73-.61.73-.61c.62-.52,1.25-1.08,1.86-1.66l.22-.2h.3c.84,0,1.68-.08,2.49-.15l.95-.08-.08.95a41.12,41.12,0,0,1-.67,4.77Zm-3.07-4.17q1,.8,2,1.5c.13-.78.24-1.6.33-2.45l-1.31.07Z" transform="translate(-375.57 -256)"/><path class="cls-2" d="M388.9,274,389,273a41.12,41.12,0,0,1,.67-4.77l.24-1.16,1,.65a41.23,41.23,0,0,1,3.84,2.9l.73.61-.73.61c-.62.52-1.25,1.08-1.86,1.66l-.22.2h-.3c-.84,0-1.68.08-2.49.15Zm2.1-4.19c-.13.78-.24,1.6-.33,2.45l1.31-.07,1-.88Q392,270.48,391,269.78Z" transform="translate(-375.57 -256)"/><path class="cls-2" d="M388.75,277.74l.07-2.14c0-.87.08-1.73.15-2.57l.06-.67.67-.06c.84-.07,1.7-.12,2.57-.15l2.14-.07-1.57,1.46c-.47.43-.92.87-1.34,1.3s-.86.88-1.3,1.34Z" transform="translate(-375.57 -256)"/><path class="cls-2" d="M394,283l1.57-1.46c.47-.43.92-.87,1.34-1.3s.86-.88,1.3-1.34l1.46-1.57-.07,2.14c0,.87-.08,1.73-.15,2.57l-.06.67-.67.06c-.84.07-1.7.12-2.57.15Z" transform="translate(-375.57 -256)"/><path class="cls-2" d="M398.21,273.82l-2.14-.07c-1.3,0-2.43,0-3.73,0l-2.14.07,1.57-1.46c.63-.59,1.28-1.17,1.92-1.71l.52-.44.52.44c.64.54,1.29,1.12,1.92,1.71Z" transform="translate(-375.57 -256)"/><path class="cls-2" d="M394.2,284.82l-.52-.44c-.64-.54-1.29-1.12-1.92-1.71l-1.57-1.46,2.14.07c1.3,0,2.43,0,3.73,0l2.14-.07-1.57,1.46c-.63.59-1.28,1.17-1.92,1.71Z" transform="translate(-375.57 -256)"/><path class="cls-2" d="M394.2,282.93c-.62,0-1.25,0-1.92,0H392l-.22-.2c-.48-.45-.94-.9-1.38-1.33s-.89-.9-1.33-1.38l-.2-.22v-.3c0-.67,0-1.3,0-1.92s0-1.25,0-1.92v-.3l.2-.22c.45-.48.9-.94,1.33-1.38s.9-.89,1.38-1.33l.22-.2h.3c1.34,0,2.5,0,3.84,0h.3l.22.2c.48.45.94.9,1.38,1.33s.89.9,1.33,1.38l.2.22v.3c0,.67,0,1.3,0,1.92s0,1.25,0,1.92v.3l-.2.22c-.45.48-.9.94-1.33,1.38s-.9.89-1.38,1.33l-.22.2h-.3C395.45,282.92,394.82,282.93,394.2,282.93Zm-1.57-1.63c1.08,0,2.05,0,3.13,0,.39-.37.77-.73,1.12-1.09s.72-.74,1.09-1.12c0-.54,0-1.06,0-1.57s0-1,0-1.57c-.37-.39-.73-.77-1.09-1.12s-.74-.72-1.12-1.09c-1.08,0-2.05,0-3.13,0-.39.37-.77.73-1.12,1.09s-.72.74-1.09,1.12c0,.54,0,1.06,0,1.57s0,1,0,1.57c.37.39.73.77,1.09,1.12S392.25,280.94,392.63,281.3Z" transform="translate(-375.57 -256)"/><circle class="cls-2" cx="9.81" cy="33.94" r="2.2"/></svg>